<svg width="15" height="15" viewBox="0 0 15 15" fill="none" xmlns="http://www.w3.org/2000/svg">
<path d="M6.09575 8.08903C6.38206 8.47178 6.74733 8.78848 7.16679 9.01765C7.58625 9.24683 8.05009 9.3831 8.52685 9.41725C9.00362 9.45139 9.48214 9.38261 9.92998 9.21555C10.3778 9.04849 10.7845 8.78707 11.1224 8.44903L13.1224 6.44903C13.7296 5.82035 14.0656 4.97835 14.058 4.10436C14.0504 3.23037 13.6998 2.39433 13.0818 1.7763C12.4638 1.15827 11.6277 0.807709 10.7538 0.800114C9.87977 0.792519 9.03776 1.1285 8.40909 1.73569L7.26242 2.87569M8.76242 6.75569C8.47612 6.37294 8.11085 6.05624 7.69139 5.82707C7.27193 5.5979 6.80808 5.46162 6.33132 5.42747C5.85456 5.39333 5.37603 5.46212 4.92819 5.62917C4.48035 5.79623 4.07368 6.05765 3.73575 6.39569L1.73575 8.39569C1.12856 9.02437 0.79258 9.86638 0.800175 10.7404C0.80777 11.6144 1.15833 12.4504 1.77636 13.0684C2.39439 13.6864 3.23043 14.037 4.10442 14.0446C4.97841 14.0522 5.82041 13.7162 6.44909 13.109L7.58909 11.969" stroke="#1E1E1E" stroke-width="1.6" stroke-linecap="round" stroke-linejoin="round"/>
</svg>
