<svg width="127" height="145" viewBox="0 0 127 145" fill="none" xmlns="http://www.w3.org/2000/svg">
<path d="M100.012 112.51C94.911 107.54 88.4284 94.7971 81.1952 93.6793C72.1708 92.2863 75.3097 104.892 76.1286 110.017C77.1863 116.552 78.6193 121.401 77.9369 128.349C75.6339 152.064 43.3062 150.087 46.104 124.187C47.0081 115.881 54.1902 103.43 51.6654 95.5194C49.7206 89.4315 42.7433 93.3869 39.4508 96.1729C30.887 103.43 24.9503 117.257 11.2857 114.093C-3.11246 110.722 -3.21482 91.392 8.02735 83.8767C15.5164 78.8723 26.3833 78.0812 33.2753 72.4921C38.1714 68.5367 35.7489 64.1686 31.1087 61.5546C24.4044 57.7711 16.3865 57.0317 9.71623 52.4915C-3.0954 43.7553 1.68124 24.6146 17.7512 25.0101C29.9487 25.3197 34.7765 40.247 44.7051 44.7527C47.8099 46.1629 53.0984 47.0228 54.0025 42.5859C56.0838 32.2674 46.7352 21.2611 50.0447 10.3064C54.3096 -3.77826 74.8491 -3.21075 78.5169 10.6847C80.6493 18.7331 76.5551 26.5407 74.9685 34.2451C71.642 50.4623 78.0563 51.4425 89.2814 42.4655C94.6551 38.1661 99.3465 32.749 105.931 30.1694C127.614 21.6739 135.154 51.8208 114.871 59.7316C108.542 62.2081 99.21 61.8813 93.9045 66.1291C88.599 70.3768 91.8915 73.5927 96.054 76.3615C102.895 80.9016 111.612 82.0366 118.299 86.9035C138.686 101.745 119.306 131.359 99.9947 112.51H100.012Z" fill="#063DBF"/>
</svg>
