<svg width="255" height="98" viewBox="0 0 255 98" fill="none" xmlns="http://www.w3.org/2000/svg">
<g clip-path="url(#clip0_1_261)">
<path d="M31.6557 0.175017C37.0238 -0.507483 41.848 0.778767 44.7513 4.92627C48.8475 10.7713 46.4003 18.2438 47.2336 24.6925C47.5494 27.16 49.0493 30.0213 51.9263 27.4225C54.6805 24.9375 57.7241 19.5038 60.2064 16.3975C65.3903 9.91377 76.293 -3.51748 86.6169 3.89377C97.6512 11.8213 87.1432 28.5338 87.1782 38.5175C87.2046 47.2938 94.1251 54.7925 88.3097 63.6475C83.3101 71.26 70.3285 72.8438 65.8376 64.085C61.4695 55.5713 68.583 47.11 71.2583 39.2175C72.46 35.6825 74.2318 26.6088 66.7849 28.84C59.3468 31.0713 56.7681 45.675 54.1454 51.31C51.9614 56 46.146 58.8963 40.813 55.9213C32.1645 51.0913 40.8919 36.4438 36.9887 28.7263C35.4625 25.7075 32.5592 27.0638 30.612 28.9363C20.1039 39.0425 30.9102 59.6313 18.3058 66.5438C11.5694 70.245 3.06999 67.9438 0.75436 61.1625C-2.35946 52.0188 4.97337 44.2488 8.42927 36.1463C12.6395 26.285 16.8848 2.04752 31.6557 0.175017Z" fill="#F77710"/>
<path d="M132.859 57.8025C131.272 56.035 130.368 52.1938 127.57 54.1975C123.553 57.0675 122.851 60.025 116.904 61.32C100.397 64.925 93.897 50.1463 96.7214 36.12C99.5545 22.05 116.281 4.53251 131.447 12.495C133.886 13.7725 135.219 16.2138 138.245 14.5775C141.271 12.9413 143.122 9.69501 147.113 12.5563C151.788 15.9163 147.437 23.625 146.113 27.9563C144.876 31.9988 141.99 40.7313 145.367 44.0563C146.271 44.9488 147.665 45.3513 148.604 46.13C153.182 49.875 150.656 56.5513 146.385 59.3688C141.894 62.335 136.473 61.845 132.85 57.8025H132.859ZM124.158 22.6625C117.115 23.6863 110.133 38.7275 114.168 44.5025C117.106 48.6938 122.211 45.9375 124.79 42.9013C128.623 38.3863 135.947 20.9388 124.149 22.6625H124.158Z" fill="#F77710"/>
<path d="M231.3 10.675C254.237 8.2775 261.552 36.5225 248.685 52.0013C232.966 70.91 205.679 60.3225 208.003 35.63C209.135 23.5375 218.845 11.97 231.3 10.6663V10.675ZM238.44 24.5263C235.747 21.84 231.063 22.54 228.344 24.7888C223.616 28.7 220.406 43.1463 226.8 46.4012C231.23 48.6587 235.896 45.8763 238.177 41.9738C240.659 37.7388 242.22 28.3063 238.44 24.5263Z" fill="#F77710"/>
<path d="M165.699 12.1188C173.479 11.4888 174.567 18.1388 172.392 24.5C170.427 30.24 170.716 35.035 172.216 40.6613C173.716 46.2875 178.154 45.0275 181.102 41.5625C188.031 33.4075 183.987 21.14 190.11 14.1225C193.671 10.0538 199.372 10.36 202.135 15.0938C206.074 21.84 202.609 32.4538 201.355 39.7425C198.188 58.17 200.013 91.665 176.672 97.3875C164.55 100.363 152.033 92.155 152.867 79.1175C153.261 72.9488 159.217 64.9775 165.945 68.8275C169.857 71.0588 171.532 79.7563 177.286 73.4738C181.102 69.3 184.128 62.2563 185.382 56.7788C185.654 55.5713 186.452 52.3688 185.847 51.3538C185.391 50.5925 183.821 51.9925 183.373 52.3863C179.575 55.685 177.865 60.7338 172.497 61.775C166.26 62.9913 162.059 60.27 159.594 53.375C157.682 48.0375 155.603 41.9563 154.051 36.5225C153.174 33.4425 152.411 30.2313 152.735 27.0025C153.402 20.265 158.472 12.6788 165.717 12.0925L165.699 12.1188Z" fill="#F77710"/>
</g>
<defs>
<clipPath id="clip0_1_261">
<rect width="255" height="98" fill="white"/>
</clipPath>
</defs>
</svg>
