<svg width="31" height="35" viewBox="0 0 31 35" fill="none" xmlns="http://www.w3.org/2000/svg">
<path d="M24.0108 27.0115C22.7862 25.8183 21.2299 22.7589 19.4933 22.4905C17.3268 22.1561 18.0804 25.1825 18.2769 26.4128C18.5309 27.9817 18.8749 29.146 18.7111 30.8141C18.1582 36.5076 10.397 36.0328 11.0686 29.8149C11.2857 27.8207 13.01 24.8315 12.4038 22.9323C11.9369 21.4707 10.2618 22.4203 9.47135 23.0892C7.41535 24.8315 5.99007 28.151 2.70947 27.3913C-0.74724 26.5821 -0.771813 21.9414 1.92721 20.1371C3.72519 18.9357 6.3341 18.7457 7.98873 17.4039C9.16418 16.4543 8.5826 15.4056 7.46859 14.778C5.85901 13.8697 3.93406 13.6922 2.33267 12.6022C-0.743144 10.5048 0.403631 5.90947 4.26171 6.00443C7.19009 6.07875 8.34915 9.6625 10.7328 10.7442C11.4782 11.0828 12.7479 11.2892 12.9649 10.224C13.4646 7.74676 11.2202 5.10436 12.0147 2.47435C13.0386 -0.907088 17.9698 -0.77084 18.8503 2.56519C19.3623 4.49744 18.3793 6.37189 17.9984 8.22157C17.1998 12.115 18.7398 12.3503 21.4347 10.1951C22.7248 9.16292 23.8511 7.86237 25.432 7.24306C30.6376 5.20346 32.4478 12.4411 27.5781 14.3404C26.0586 14.9349 23.8183 14.8565 22.5446 15.8763C21.2709 16.8961 22.0613 17.6681 23.0606 18.3329C24.703 19.4229 26.7959 19.6954 28.4013 20.8638C33.2956 24.4269 28.643 31.5366 24.0067 27.0115H24.0108Z" fill="#063DBF"/>
</svg>
