<svg width="15" height="15" viewBox="0 0 15 15" fill="none" xmlns="http://www.w3.org/2000/svg">
<path d="M6.09571 8.08903C6.38201 8.47178 6.74728 8.78848 7.16674 9.01765C7.5862 9.24683 8.05005 9.3831 8.52681 9.41725C9.00357 9.45139 9.4821 9.38261 9.92994 9.21555C10.3778 9.04849 10.7845 8.78707 11.1224 8.44903L13.1224 6.44903C13.7296 5.82035 14.0655 4.97835 14.058 4.10436C14.0504 3.23037 13.6998 2.39433 13.0818 1.7763C12.4637 1.15827 11.6277 0.807709 10.7537 0.800114C9.87972 0.792519 9.03772 1.1285 8.40904 1.73569L7.26238 2.87569M8.76238 6.75569C8.47607 6.37294 8.1108 6.05624 7.69134 5.82707C7.27188 5.5979 6.80804 5.46162 6.33128 5.42747C5.85451 5.39333 5.37598 5.46212 4.92815 5.62917C4.48031 5.79623 4.07363 6.05765 3.73571 6.39569L1.73571 8.39569C1.12852 9.02437 0.792534 9.86638 0.800129 10.7404C0.807724 11.6144 1.15829 12.4504 1.77631 13.0684C2.39434 13.6864 3.23038 14.037 4.10437 14.0446C4.97836 14.0522 5.82037 13.7162 6.44904 13.109L7.58904 11.969" stroke="#F5F5F5" stroke-width="1.6" stroke-linecap="round" stroke-linejoin="round"/>
</svg>
